<svg xmlns="http://www.w3.org/2000/svg" width="120" height="120" viewBox="0 0 120 120">
  <defs>
    <radialGradient id="g" cx="50%" cy="30%" r="70%">
      <stop offset="0%" stop-color="#ffffff" stop-opacity="0.5"/>
      <stop offset="60%" stop-color="#ffffff" stop-opacity="0.15"/>
      <stop offset="100%" stop-color="#ffffff" stop-opacity="0"/>
    </radialGradient>
  </defs>
  <rect width="120" height="120" fill="none"/>
  <circle cx="60" cy="60" r="42" fill="#ffffff" fill-opacity="0.08"/>
  <circle cx="60" cy="60" r="42" fill="url(#g)"/>
  <g fill="#ffffff" fill-opacity="0.15">
    <rect x="34" y="34" width="12" height="12" rx="2"/>
    <rect x="74" y="34" width="12" height="12" rx="2"/>
    <rect x="34" y="74" width="12" height="12" rx="2"/>
    <rect x="74" y="74" width="12" height="12" rx="2"/>
    <rect x="54" y="24" width="12" height="12" rx="2"/>
    <rect x="54" y="84" width="12" height="12" rx="2"/>
    <rect x="24" y="54" width="12" height="12" rx="2"/>
    <rect x="84" y="54" width="12" height="12" rx="2"/>
  </g>
  <circle cx="54" cy="44" r="4" fill="#ffffff" fill-opacity="0.25"/>
  <circle cx="74" cy="56" r="3" fill="#ffffff" fill-opacity="0.22"/>
  <circle cx="48" cy="72" r="2.5" fill="#ffffff" fill-opacity="0.18"/>
</svg>
